<svg width="93" height="15" viewBox="0 0 93 15" fill="none" xmlns="http://www.w3.org/2000/svg">
<path d="M9.23291 0.855469C9.09619 0.554688 8.79541 0.363281 8.46729 0.363281C8.11182 0.363281 7.81104 0.554688 7.67432 0.855469L5.92432 4.49219L1.98682 5.06641C1.65869 5.12109 1.38525 5.33984 1.27588 5.66797C1.19385 5.96875 1.27588 6.32422 1.49463 6.54297L4.33838 9.35938L3.68213 13.3516C3.62744 13.6797 3.76416 14.0078 4.0376 14.1992C4.31104 14.418 4.6665 14.418 4.93994 14.2812L8.46729 12.3945L11.9673 14.2812C12.2681 14.418 12.6235 14.418 12.897 14.1992C13.1704 14.0078 13.3071 13.6797 13.2524 13.3516L12.5688 9.35938L15.4126 6.54297C15.6587 6.32422 15.7407 5.96875 15.6313 5.66797C15.522 5.33984 15.2485 5.12109 14.9204 5.06641L11.0103 4.49219L9.23291 0.855469Z" fill="#04D800"/>
<path d="M28.2329 0.855469C28.0962 0.554688 27.7954 0.363281 27.4673 0.363281C27.1118 0.363281 26.811 0.554688 26.6743 0.855469L24.9243 4.49219L20.9868 5.06641C20.6587 5.12109 20.3853 5.33984 20.2759 5.66797C20.1938 5.96875 20.2759 6.32422 20.4946 6.54297L23.3384 9.35938L22.6821 13.3516C22.6274 13.6797 22.7642 14.0078 23.0376 14.1992C23.311 14.418 23.6665 14.418 23.9399 14.2812L27.4673 12.3945L30.9673 14.2812C31.2681 14.418 31.6235 14.418 31.897 14.1992C32.1704 14.0078 32.3071 13.6797 32.2524 13.3516L31.5688 9.35938L34.4126 6.54297C34.6587 6.32422 34.7407 5.96875 34.6313 5.66797C34.522 5.33984 34.2485 5.12109 33.9204 5.06641L30.0103 4.49219L28.2329 0.855469Z" fill="#04D800"/>
<path d="M47.2329 0.855469C47.0962 0.554688 46.7954 0.363281 46.4673 0.363281C46.1118 0.363281 45.811 0.554688 45.6743 0.855469L43.9243 4.49219L39.9868 5.06641C39.6587 5.12109 39.3853 5.33984 39.2759 5.66797C39.1938 5.96875 39.2759 6.32422 39.4946 6.54297L42.3384 9.35938L41.6821 13.3516C41.6274 13.6797 41.7642 14.0078 42.0376 14.1992C42.311 14.418 42.6665 14.418 42.9399 14.2812L46.4673 12.3945L49.9673 14.2812C50.2681 14.418 50.6235 14.418 50.897 14.1992C51.1704 14.0078 51.3071 13.6797 51.2524 13.3516L50.5688 9.35938L53.4126 6.54297C53.6587 6.32422 53.7407 5.96875 53.6313 5.66797C53.522 5.33984 53.2485 5.12109 52.9204 5.06641L49.0103 4.49219L47.2329 0.855469Z" fill="#04D800"/>
<path d="M66.2329 0.855469C66.0962 0.554688 65.7954 0.363281 65.4673 0.363281C65.1118 0.363281 64.811 0.554688 64.6743 0.855469L62.9243 4.49219L58.9868 5.06641C58.6587 5.12109 58.3853 5.33984 58.2759 5.66797C58.1938 5.96875 58.2759 6.32422 58.4946 6.54297L61.3384 9.35938L60.6821 13.3516C60.6274 13.6797 60.7642 14.0078 61.0376 14.1992C61.311 14.418 61.6665 14.418 61.9399 14.2812L65.4673 12.3945L68.9673 14.2812C69.2681 14.418 69.6235 14.418 69.897 14.1992C70.1704 14.0078 70.3071 13.6797 70.2524 13.3516L69.5688 9.35938L72.4126 6.54297C72.6587 6.32422 72.7407 5.96875 72.6313 5.66797C72.522 5.33984 72.2485 5.12109 71.9204 5.06641L68.0103 4.49219L66.2329 0.855469Z" fill="#04D800"/>
<path d="M84.4673 0.363281C84.1118 0.390625 83.811 0.554688 83.6743 0.855469L81.9243 4.49219L77.9868 5.06641C77.6587 5.12109 77.3853 5.33984 77.2759 5.66797C77.1938 5.96875 77.2759 6.32422 77.4946 6.54297L80.3384 9.35938L79.6821 13.3516C79.6274 13.6797 79.7642 14.0078 80.0376 14.1992C80.311 14.418 80.6665 14.418 80.9399 14.2812L84.4673 12.3945V0.363281ZM88.3228 14.3633C88.3774 14.3906 88.4048 14.3906 88.4321 14.3633H88.3228Z" fill="#04D800"/>
</svg>
